<mxfile host="app.diagrams.net" modified="2023-08-28T12:39:06.194Z" agent="Mozilla/5.0 (Windows NT 10.0; Win64; x64) AppleWebKit/537.36 (KHTML, like Gecko) Chrome/116.0.0.0 Safari/537.36" etag="LaOgUKIFCdZL_9RVyzl1" version="21.6.9" type="device">
  <diagram name="Página-1" id="pAbSrsfRT5jl7yGOZ0wi">
    <mxGraphModel dx="1050" dy="574" grid="1" gridSize="10" guides="1" tooltips="1" connect="1" arrows="1" fold="1" page="1" pageScale="1" pageWidth="827" pageHeight="1169" math="0" shadow="0">
      <root>
        <mxCell id="0" />
        <mxCell id="1" parent="0" />
        <mxCell id="qsqnUm0DEEhEp6j4Phzr-1" value="Trabalhador" style="swimlane;fontStyle=1;align=center;verticalAlign=top;childLayout=stackLayout;horizontal=1;startSize=26;horizontalStack=0;resizeParent=1;resizeParentMax=0;resizeLast=0;collapsible=1;marginBottom=0;whiteSpace=wrap;html=1;" vertex="1" parent="1">
          <mxGeometry x="330" y="250" width="160" height="160" as="geometry" />
        </mxCell>
        <mxCell id="qsqnUm0DEEhEp6j4Phzr-2" value="+ CPF: string&lt;br&gt;+ Nome: string&lt;br&gt;+ Empresa: string&lt;br&gt;+ Função: string" style="text;strokeColor=none;fillColor=none;align=left;verticalAlign=top;spacingLeft=4;spacingRight=4;overflow=hidden;rotatable=0;points=[[0,0.5],[1,0.5]];portConstraint=eastwest;whiteSpace=wrap;html=1;" vertex="1" parent="qsqnUm0DEEhEp6j4Phzr-1">
          <mxGeometry y="26" width="160" height="74" as="geometry" />
        </mxCell>
        <mxCell id="qsqnUm0DEEhEp6j4Phzr-3" value="" style="line;strokeWidth=1;fillColor=none;align=left;verticalAlign=middle;spacingTop=-1;spacingLeft=3;spacingRight=3;rotatable=0;labelPosition=right;points=[];portConstraint=eastwest;strokeColor=inherit;" vertex="1" parent="qsqnUm0DEEhEp6j4Phzr-1">
          <mxGeometry y="100" width="160" height="8" as="geometry" />
        </mxCell>
        <mxCell id="qsqnUm0DEEhEp6j4Phzr-4" value="+ Trabalhar ( ) : void&lt;br&gt;+ Receber o salário ( ) : void" style="text;strokeColor=none;fillColor=none;align=left;verticalAlign=top;spacingLeft=4;spacingRight=4;overflow=hidden;rotatable=0;points=[[0,0.5],[1,0.5]];portConstraint=eastwest;whiteSpace=wrap;html=1;" vertex="1" parent="qsqnUm0DEEhEp6j4Phzr-1">
          <mxGeometry y="108" width="160" height="52" as="geometry" />
        </mxCell>
      </root>
    </mxGraphModel>
  </diagram>
</mxfile>
